<svg width="610" height="1080" viewBox="0 0 610 1080" fill="none" xmlns="http://www.w3.org/2000/svg">
<path d="M610 1080H429.736C274.236 1080 -8.64379 991 20.0002 798.5C48.6441 606 367.284 573.215 429.736 473.5C492.188 373.784 295.337 296.5 332.736 157C374.828 0 610 -6.10352e-05 610 -6.10352e-05V1080Z" fill="url(#paint0_linear_22_259)"/>
<path d="M409.983 459.6C401.256 479.35 384.475 485.174 365.959 485.174C347.443 485.174 332.771 466.324 338.528 444.47C343.045 427.323 361.72 406.5 380.236 406.5C398.752 406.5 417.718 442.095 409.983 459.6Z" fill="#F79E5D"/>
<path d="M317.809 517.925C310.565 523.19 295.462 523.247 290.159 516.055C284.857 508.862 291.601 498.764 298.845 493.5C306.089 488.235 316.232 486.308 321.534 493.5C326.837 500.692 325.053 512.661 317.809 517.925Z" fill="#F79E5D"/>
<path d="M339.715 87.8313C340.467 94.4369 335.013 104.284 328.458 105.148C321.904 106.012 317.859 97.9945 317.107 91.3888C316.354 84.7832 318.802 77.4913 325.356 76.6268C331.911 75.7624 338.962 81.2257 339.715 87.8313Z" fill="#F79E5D"/>
<path d="M375.825 62.3113C366.855 68.8749 348.153 68.9455 341.587 59.9786C335.021 51.0118 343.372 38.4219 352.342 31.8583C361.312 25.2946 373.872 22.8914 380.438 31.8583C387.004 40.8251 384.795 55.7476 375.825 62.3113Z" fill="#F79E5D"/>
<path d="M40.6303 677.654C34.2514 683.738 20.9523 683.803 16.2831 675.492C11.6138 667.182 17.5523 655.513 23.9312 649.43C30.31 643.346 39.2413 641.119 43.9105 649.43C48.5797 657.74 47.0091 671.571 40.6303 677.654Z" fill="#F79E5D"/>
<path d="M7.57557 978.877C0.555726 972.374 -2.57097 956.581 3.93266 949.561C10.4363 942.541 22.4491 947.533 29.469 954.036C36.4888 960.54 40.5802 970.76 34.0766 977.779C27.5729 984.799 14.5954 985.381 7.57557 978.877Z" fill="#F79E5D"/>
<path d="M59.3082 1055.28C43.6907 1047.37 30.2439 1021.18 38.1474 1005.56C46.0508 989.942 69.6875 992.674 85.3051 1000.58C100.923 1008.48 113.261 1024.39 105.357 1040.01C97.4538 1055.63 74.9258 1063.18 59.3082 1055.28Z" fill="#F79E5D"/>
<path d="M419.786 1080H610V-0.000107969C610 -0.000107969 424.721 -0.496078 375.364 184.545C338.446 322.954 481.434 376.813 419.786 475.749C358.138 574.684 139.208 620 100.5 788C61.7921 956 266.287 1080 419.786 1080Z" fill="url(#paint1_linear_22_259)"/>
<defs>
<linearGradient id="paint0_linear_22_259" x1="379.011" y1="-7.40033" x2="379.011" y2="1080" gradientUnits="userSpaceOnUse">
<stop stop-color="#FCC298"/>
<stop offset="1" stop-color="#DD6D66"/>
</linearGradient>
<linearGradient id="paint1_linear_22_259" x1="165.599" y1="1020.95" x2="777.259" y2="1.75303" gradientUnits="userSpaceOnUse">
<stop stop-color="#3A6CEB"/>
<stop offset="1" stop-color="#7CE5AC"/>
</linearGradient>
</defs>
</svg>
